<svg width="113" height="208" viewBox="0 0 113 208" fill="none" xmlns="http://www.w3.org/2000/svg">
<circle cx="4.95238" cy="4.9525" r="4.95238" fill="#898989"/>
<circle cx="4.95238" cy="29.7143" r="4.95238" fill="#898989"/>
<circle cx="4.95238" cy="54.4762" r="4.95238" fill="#898989"/>
<circle cx="4.95238" cy="79.2381" r="4.95238" fill="#898989"/>
<circle cx="4.95238" cy="104" r="4.95238" fill="#898989"/>
<circle cx="4.95238" cy="128.762" r="4.95238" fill="#898989"/>
<circle cx="4.95238" cy="153.524" r="4.95238" fill="#898989"/>
<circle cx="4.95238" cy="178.286" r="4.95238" fill="#898989"/>
<circle cx="4.95238" cy="203.048" r="4.95238" fill="#898989"/>
<circle cx="29.7141" cy="4.95238" r="4.95238" fill="#898989"/>
<circle cx="29.7141" cy="29.7143" r="4.95238" fill="#898989"/>
<circle cx="29.7141" cy="54.4762" r="4.95238" fill="#898989"/>
<circle cx="29.7141" cy="79.2381" r="4.95238" fill="#898989"/>
<circle cx="29.7141" cy="104" r="4.95238" fill="#898989"/>
<circle cx="29.7141" cy="128.762" r="4.95238" fill="#898989"/>
<circle cx="29.7141" cy="153.524" r="4.95238" fill="#898989"/>
<circle cx="29.7141" cy="178.286" r="4.95238" fill="#898989"/>
<circle cx="29.7141" cy="203.048" r="4.95238" fill="#898989"/>
<circle cx="54.4763" cy="4.95238" r="4.95238" fill="#898989"/>
<circle cx="54.4763" cy="29.7143" r="4.95238" fill="#898989"/>
<circle cx="54.4763" cy="54.4762" r="4.95238" fill="#898989"/>
<circle cx="54.4763" cy="79.2381" r="4.95238" fill="#898989"/>
<circle cx="54.4763" cy="104" r="4.95238" fill="#898989"/>
<circle cx="54.4763" cy="128.762" r="4.95238" fill="#898989"/>
<circle cx="54.4763" cy="153.524" r="4.95238" fill="#898989"/>
<circle cx="54.4763" cy="178.286" r="4.95238" fill="#898989"/>
<circle cx="54.4763" cy="203.048" r="4.95238" fill="#898989"/>
<circle cx="79.2383" cy="4.95238" r="4.95238" fill="#898989"/>
<circle cx="79.2383" cy="29.7143" r="4.95238" fill="#898989"/>
<circle cx="79.2383" cy="54.4762" r="4.95238" fill="#898989"/>
<circle cx="79.2383" cy="79.2381" r="4.95238" fill="#898989"/>
<circle cx="79.2383" cy="104" r="4.95238" fill="#898989"/>
<circle cx="79.2383" cy="128.762" r="4.95238" fill="#898989"/>
<circle cx="79.2383" cy="153.524" r="4.95238" fill="#898989"/>
<circle cx="79.2383" cy="178.286" r="4.95238" fill="#898989"/>
<circle cx="79.2383" cy="203.048" r="4.95238" fill="#898989"/>
<circle cx="104" cy="4.95238" r="4.95238" fill="#898989"/>
<circle cx="104" cy="29.7143" r="4.95238" fill="#898989"/>
<circle cx="104" cy="54.4762" r="4.95238" fill="#898989"/>
<circle cx="104" cy="79.2381" r="4.95238" fill="#898989"/>
<circle cx="104" cy="104" r="4.95238" fill="#898989"/>
<circle cx="104" cy="128.762" r="4.95238" fill="#898989"/>
<circle cx="104" cy="153.524" r="4.95238" fill="#898989"/>
<circle cx="104" cy="178.286" r="4.95238" fill="#898989"/>
<circle cx="104" cy="203.048" r="4.95238" fill="#898989"/>
</svg>
